Patient5_TMGait_0pt45_1_right_06_EMG.mot
version=1
nRows=26
nColumns=33
inDegrees=no
endheader
time	1LAddLong	2LGlutMax	3LGlutMed	4LIliopsoas	5LSemiMemb	6LBicFemLong	7LRecFem	8LTensFascLat	9LVastMed	10LVasLat	11LGasMed	12lGasLat	13LTibAnt	14LPeroneusLong	15LSol	16LTibPost	17RAddLong	18RGlutMax	19RGlutMed	20RIliopsoas	21RSemiMemb	22RBicFemLong	23RRecFem	24RTensFascLat	25RVastMed	26RVasLat	27RGasMed	28RGasLat	29RTibAnt	30RPeroneusLong	31RSol	32RTibPost
11.27	-0.016327	-0.017853	0.059814	0.004578	-0.010071	0.001068	0.007172	0.09552	0.031128	-0.028381	-0.063171	-0.01236	-0.002747	0.018005	-0.070343	0.11078	0.007782	-0.000916	0.024414	-0.12161	-0.005646	-0.047913	0.005493	-0.01297	0.004272	0	-0.000305	-0.013275	-0.000305	-0.015869	-0.024414	-0.003662
11.271	-0.027313	-0.015106	0.1004	0.002441	-0.029297	-0.11078	0.010986	0.12161	0.048981	-0.027161	0.1799	0.004883	-0.00412	0.044556	-0.032043	0.012512	0.010071	-0.002289	-0.009766	0.059204	0.003204	-0.049744	0.005646	-0.014343	-0.00061	-0.006409	0.001984	-0.018311	0.014343	-0.002289	-0.030365	-0.015106
11.272	-0.021515	-0.000153	0.001373	0.011292	-0.005646	-0.16312	0.011292	0.000763	0.050201	-0.017853	0.034485	-0.012817	0.01236	0.05661	-0.057983	-0.074921	0.004425	-0.003357	0.020294	0.12115	0.02243	-0.023499	0.001373	-0.024261	0.002747	-0.003967	-0.003662	-0.004425	-0.003052	0.005493	-0.038757	-0.005035
11.273	-0.016479	0.007019	-0.045929	-0.009155	-0.009155	-0.22385	0.005646	-0.047302	0.056915	-0.018768	0.071411	-0.017395	0.024414	0.033112	-0.012512	0.000458	0.007172	-0.015869	0.010071	-0.044708	0.040588	0.05188	0.001831	0.005951	0.001984	-0.001373	-0.011902	0.008698	-0.015717	0.00473	-0.02533	-0.007324
11.274	-0.022125	0.014038	0.022736	-0.013275	-0.007324	-0.33646	0.008087	-0.071716	0.046234	-0.007172	-0.22736	-0.027313	0.00946	-0.035858	-0.019989	0.019073	0.002899	-0.005798	0.001221	-0.009308	0.021057	0.06485	0.004272	0.005646	0.007172	-0.000458	-0.018158	0.018005	-0.017548	0.007782	-0.033569	-0.002289
11.275	-0.030975	0.014801	-0.02243	0.015106	-0.005188	-0.32394	0.006256	-0.15671	0.036316	-0.005493	-0.29266	-0.032043	0.020142	-0.12726	-0.017853	-0.12131	0.003357	-0.005341	0.020294	0.045929	0.025482	0.038757	0.005035	-0.000916	0.005798	-0.00473	-0.003967	0.034332	-0.014648	0.004425	-0.035858	-0.012207
11.276	-0.023346	0.022736	-0.046997	0.018158	-0.021362	-0.11322	0.006409	-0.13763	0.02243	-0.001373	0.027618	-0.015564	0.023193	-0.086365	0.008698	-0.17105	0.004425	-0.005646	0.046844	0.049286	0.025177	0.021362	0.003052	0.00061	0.001068	-0.002594	0.003662	0.03067	0.007019	-0.003662	-0.031128	-0.014648
11.277	-0.005035	0.022736	-0.04303	0.015869	-0.023041	0.11231	0.008698	-0.10117	0.014954	-0.002899	0.12649	-0.015411	-0.005035	-0.024261	0.050354	0.029144	0.008087	-0.005646	0.022125	-0.15671	0.032196	0.014496	0.002747	-0.000153	-0.006409	0.000153	0.00412	0.03067	0.016632	-0.009003	0.010071	-0.013885
11.278	0.010834	0.023346	-0.06012	-0.058136	-0.002899	0.19699	0.000916	-0.027618	-0.005341	-0.011597	0.1416	-0.018463	-0.016632	-0.02243	0.0383	0.042419	0.011749	-0.002289	0.006409	-0.10346	0.006714	0.010986	0.003204	0.004272	0.004425	-0.003662	0.005035	0.029755	0.031891	-0.009613	0.027618	-0.021362
11.279	0.000763	0.019836	-0.064697	0.03067	0.005798	0.18738	0	-0.050507	-0.02121	0.002747	0.1329	-0.030518	-0.003204	-0.045013	-0.000763	0.062256	0.010376	-0.004425	0.027161	0.15152	-0.035858	0.020752	0.006561	0.005341	0.004272	-0.002747	0.005646	-0.010376	0.032196	-0.00351	0.011597	-0.015259
11.28	0.014038	0.013123	-0.043945	0.063171	0.027924	0.2153	-0.001678	-0.039978	-0.037842	-0.019531	0.034485	-0.024261	-0.000458	-0.0177	0.002289	-0.005188	0.007629	-0.00351	0.04303	0.090485	0.005035	0.020599	0.01297	-0.005493	0.002594	0.002289	0.002594	-0.036926	0.027466	0.007324	0.010376	-0.007629
11.281	0.014496	0.015869	0.028992	-0.026245	0.011139	0.18768	0.008087	0.037689	-0.054169	-0.010681	0.027618	-0.013733	0.004425	-0.011749	0.016022	0.097351	0.007935	0.000763	0.006866	-0.11643	0.052948	0.024567	0.019379	0.009003	0.000153	0.006256	0.005798	-0.041809	0.014038	-0.008545	0.005493	-0.003662
11.282	0.017395	0.006561	0.022888	0.027924	0.001678	0.13855	-0.001373	0.037842	-0.048523	0.00824	0.010071	-0.00412	0.014343	-0.019226	0.033417	-0.019226	0.016174	-0.002747	-0.031586	-0.099792	0.061798	0.018311	0.028839	0.022278	-0.009003	0.010071	0.00061	-0.027008	0.004883	-0.004272	-0.008545	-0.009766
11.283	0.007019	0.002899	0.01236	-0.001373	0.011749	0.06546	0.005798	0.027618	-0.041504	0.014648	-0.058746	0.002136	0.006714	-0.018921	0.062714	0.08316	0.010681	-0.00473	-0.031586	-0.16403	0.050354	0.01297	0.021973	-0.003815	-0.009766	0.00824	-0.00061	-0.020142	0.002747	-0.01297	-0.002747	-0.009918
11.284	-0.007629	0.004578	0.037231	0.001221	0.005798	-0.03891	0.005951	0.03479	-0.027466	0.013275	-0.14542	-0.020447	0.03006	-0.019989	0.10269	0.016327	0.012054	-0.002289	-0.052185	0.079346	0.056763	0.01358	0.009613	-0.008392	-0.00946	-0.000916	0.000458	-0.025024	-0.002594	-0.014496	0.021667	-0.008392
11.285	-0.007019	-0.003662	-0.022583	0.043182	0.006714	-0.080566	0.009766	-0.014343	-0.014648	0.010681	-0.20554	-0.017242	0.023346	-0.010681	0.057831	-0.007629	0.007782	-0.009308	-0.032196	0.031891	0.052032	0.018463	0.012665	-0.029755	-0.010223	0.000153	0.002289	-0.017548	0.002899	-0.015869	0.014954	-0.010223
11.286	0.005341	0.00473	-0.067749	0.010223	0.018463	-0.10895	0.006409	-0.058746	-0.008087	-0.011139	-0.085754	-0.022125	0.019226	-0.023499	0.029297	0.013885	0.016937	-0.00351	-0.009613	-0.048218	0.055847	0.020599	0.005798	-0.029144	-0.013733	0.000916	0.001526	-0.013733	-0.03418	-0.020905	0.005951	-0.009003
11.287	-0.007019	0.002594	-0.04776	0.006866	0.027771	-0.18585	0.009766	-0.037842	-0.002289	-0.023499	-0.066681	-0.006256	0.0177	-0.015259	0.049286	0.13687	0.013123	-0.007019	0.04837	0.005188	0.035248	0.025635	0.005035	-0.001984	-0.016174	-0.000458	0.003204	-0.010681	-0.075226	-0.021973	-0.010376	-0.004578
11.288	-0.014343	-0.006561	-0.03952	0.0177	-0.00824	0.000916	0.000305	-0.035095	-0.000763	-0.041809	-0.028687	-0.007477	0.010223	-0.010681	0.026398	0.063171	0.011902	0.007324	-0.002289	-0.01709	0.029449	0.021515	-0.000458	-0.013733	-0.010681	0.001984	0.001984	-0.00473	-0.081787	-0.02121	-0.020142	-0.001373
11.289	-0.025787	-0.005341	-0.027618	0.00473	-0.015564	0.1976	0	-0.04303	0.00473	-0.044861	-0.001526	-0.015106	0.012054	-0.016022	-0.003967	-0.031128	0.013123	-0.004272	0.005035	0.098572	0.028992	0.0177	0.001526	0.018158	-0.008698	0.004578	-0.001984	0.003204	-0.071869	-0.024414	-0.013428	-0.005798
11.29	-0.17197	0.008087	0.011292	0.008698	-0.001831	0.25146	0.00061	-0.050812	0	-0.046844	0.036774	-0.025177	0.025177	-0.029907	0.020294	0.028381	0.00824	-0.001373	-0.030365	0.028839	0.028992	0.015411	0.002136	0.007019	-0.008698	0.001984	0.00351	0.001678	-0.05249	-0.016022	-0.018616	-0.003357
11.291	-0.081635	0.007172	0.002136	-0.002441	0.017395	0.27023	-0.011292	-0.023804	0.001221	-0.031586	0.1622	-0.023346	0.026245	-0.013885	0.018768	0.046082	0.008698	-0.005646	-0.004425	0.063934	0.053253	-0.010376	-0.001984	-0.027924	-0.009003	0.000916	0.005646	-0.012665	-0.009003	0.007324	-0.027313	-0.000458
11.292	-0.029755	0.003662	-0.031128	0.000153	0.021515	0.29388	-0.001068	-0.063629	-0.001221	-0.038147	0.070038	-0.007935	0.017548	-0.003662	0.004425	-0.037384	0.005035	-0.002289	0.012054	0.011597	0.17258	-0.000916	-0.011292	-0.008392	-0.00946	-0.002899	0.006561	-0.019684	0.041046	0.03006	0.008698	-0.00061
11.293	0.006866	0.009918	-0.076447	-0.007477	0.016785	0.26108	0.004272	-0.14206	-0.003357	-0.041656	0.017853	-0.009613	0.012207	0.018311	-0.040588	0.005188	0.006714	-0.00946	0.041046	-0.13825	0.25665	-0.004578	-0.009155	-0.030518	-0.003357	-0.000458	0.011749	-0.021057	0.045776	0.036316	0.009003	0.002747
11.294	0.022125	-0.001221	-0.04425	-0.002289	0.033722	0.24139	-0.005035	-0.13825	-0.00946	-0.013733	-0.018768	0.003052	0.012665	0.046539	-0.12756	-0.001373	0.002136	-0.000763	0.031281	0.14938	0.21957	-0.009308	0.004272	-0.030365	-0.012207	0	0.014801	-0.017395	0.025177	0.025787	-0.012512	-0.00351
11.295	0.024719	0.001373	-0.02121	0.005798	0.033112	0.13733	-0.005341	-0.17319	-0.011139	0.016479	-0.058899	0.006409	0.017548	0.042877	-0.086365	-0.095367	0.01236	-0.010223	0.011902	0.041962	0.13214	-0.008392	0.005798	-0.037384	-0.016937	-0.001526	0.012665	-0.012817	0.00473	-0.001221	0.005493	0.001678
